<?xml version="1.0" encoding="utf-8" ?>	<!-- Generator: Assembly 2.4 - http://assemblyapp.co -->	<svg version="1.1" xmlns="http://www.w3.org/2000/svg" xmlns:xlink="http://www.w3.org/1999/xlink" width="4096.00" height="4096.00" viewBox="0 0 4096.0 4096.0">		<g id="document" transform="scale(13.653333333333334 13.653333333333334) translate(150.0 150.0)">			<path d="M-158.705,-68.9137 C-152.683,-59.4513 -142.074,-54.29 -130.891,-55.1502 L-158.418,-30.2039 C-151.25,-18.7344 -138.06,-13.5731 -125.73,-15.867 L-151.823,8.79256 C-142.648,38.3267 -98.2031,31.1582 -98.2031,31.1582 L-98.2031,-36.5122 L-30.8195,-88.6986 L-51.1779,-38.2326 C-11.3212,-25.0426 60.937,-41.6735 91.618,-66.333 L91.618,41.194 C113.41,9.36604 128.034,-22.462 128.034,-57.4441 C128.034,-124.828 72.98,-180.168 5.30964,-180.168 C-29.9592,-180.168 -62.3607,-164.971 -84.7264,-140.885 L-158.705,-68.9137 Z " fill="#f5ad30" fill-opacity="1.00" />			<path d="M-49.6565,-24.1972 C-37.333,-23.624 -26.6145,-17.7775 -24.0351,-17.9494 C-21.4558,-18.408 -19.7363,-22.2483 -24.0351,-24.8277 C-27.8755,-27.8655 -53.0956,-37.2085 -63.7569,-34.2852 C-74.4181,-31.362 -78.717,-16.4018 -78.717,-16.4018 C-78.717,-16.4018 -62.0373,-24.6557 -49.6565,-24.1972 Z " fill="#f5ad30" fill-opacity="1.00" />			<path d="M47.6989,-24.1972 C35.3754,-23.624 24.6568,-17.7775 22.0775,-17.9494 C19.4981,-18.408 17.7786,-22.2483 22.0775,-24.8277 C25.9178,-27.8655 51.138,-37.2085 61.7992,-34.2852 C72.4605,-31.362 76.7594,-16.4018 76.7594,-16.4018 C76.7594,-16.4018 60.0797,-24.6557 47.6989,-24.1972 Z " fill="#f5ad30" fill-opacity="1.00" />			<path d="M-0.0383194,61.0245 C-3.23159,61.0245 -7.0265,59.0808 -8.97023,55.8875 C-10.914,52.6943 -15.4031,52.6943 -17.3468,55.8875 C-19.2442,53.9438 -20.5401,51.3984 -20.5401,48.8068 C-20.5401,44.3177 -13.4593,37.9311 -10.2661,33.3958 C-5.77696,26.2688 -4.94393,22.1036 -4.48114,19.2343 C-4.01834,16.365 -2.5374,14.7452 0.00796001,14.7452 C2.55332,14.7452 4.03426,16.3187 4.49706,19.2343 C4.95985,22.1499 5.79288,26.315 10.282,33.3958 C13.5678,37.8849 20.6023,44.2714 20.6023,48.7605 C20.6023,51.3522 19.3064,53.8975 17.409,55.8413 C15.4653,52.648 10.9762,52.648 9.03243,55.8413 C7.04242,59.0808 3.24751,61.0245 0.0542393,61.0245 L-0.0383194,61.0245 L-0.0383194,61.0245 Z " fill="#f5ad30" fill-opacity="1.00" />			<path d="M-78.3707,3.73575 C-78.3707,3.73575 -66.6814,14.7452 -52.872,14.7452 C-39.0626,14.7452 -21.763,7.61498 -21.763,7.61498 C-21.763,7.61498 -38.7188,-7.89621 -52.872,-7.89621 C-67.0825,-7.89621 -78.3707,3.73575 -78.3707,3.73575 Z " fill="#f5ad30" fill-opacity="1.00" />			<path d="M76.7594,3.73575 C76.7594,3.73575 65.0701,14.7452 51.2607,14.7452 C37.4513,14.7452 20.1517,7.61498 20.1517,7.61498 C20.1517,7.61498 37.1075,-7.89621 51.2607,-7.89621 C65.4712,-7.89621 76.7594,3.73575 76.7594,3.73575 Z " fill="#f5ad30" fill-opacity="1.00" />			<path d="M-50.7355,-39.8149 C-50.7355,-39.8149 -55.0675,-41.1017 -56.0453,-38.4345 C-57.0232,-35.7672 -56.8099,-30.5104 -55.5215,-27.2507 C-54.5527,-24.7996 -51.9962,-20.5144 -49.7923,-18.5668 C-46.1346,-15.3342 -43.6009,-20.3683 -43.6009,-20.3683 C-43.6009,-20.3683 -47.2852,-22.593 -49.862,-29.1124 C-52.4387,-35.6318 -50.7355,-39.8149 -50.7355,-39.8149 Z " fill="#ffffff" fill-opacity="1.00" />			<path d="M0.170434,110.391 C4.62915,119.169 27.3407,138.537 51.3064,132.546 C69.5592,128.644 69.5592,111.367 69.5592,111.367 C69.5592,111.367 67.0512,115.268 60.6418,115.268 C48.7983,115.268 43.7823,91.0237 31.9388,77.6475 C16.8906,60.788 0.0310993,77.0902 0.0310993,77.0902 C0.0310993,77.0902 -16.5498,60.788 -31.8766,77.6475 C-43.7201,90.6057 -48.1788,115.268 -60.5796,115.268 C-66.989,115.268 -69.497,111.367 -69.497,111.367 C-69.497,111.367 -69.497,128.087 -51.2442,132.685 C-26.8605,138.119 -4.28828,119.309 0.170434,110.391 Z " fill="#f5ad30" fill-opacity="1.00" />			<path d="M138.9,-128.911 C138.9,-128.911 128.861,-114.256 123.202,-107.343 C124.829,-106.984 120.041,-119.592 121.924,-119.001 C158.236,-105.764 160.728,-43.2506 121.156,-17.6917 C121.156,-17.6917 130.104,-53.6439 114.398,-79.3594 C109.691,-86.7865 108.567,-91.0745 103.76,-92.594 C98.9534,-94.1135 93.2213,-94.6118 92.7103,-104.002 C92.243,-113.491 107.232,-137.01 138.9,-128.911 Z " fill="#f5ad30" fill-opacity="1.00" />		</g>	</svg>